# xmcd CD database file
#
# Track frame offsets:
#	150
#	21780
#	45162
#	63665
#	75172
#	93217
#	111297
#	128625
#	147742
#	163995
#	177037
#	195282
#	211967
#	230335
#	246427
#	263492
#	285440
#	299355
#	317780
#	333637
#
# Disc length: 4669 seconds
#
# Revision: 2
# Processed by: cddbd v1.5.1PL2 Copyright (c) Steve Scherf et al.
# Submitted via: CDex 1.51
#
DISCID=19123b14
DTITLE=ZZ Top - Chrome, Smoke and BBQ [CD3]
DYEAR=2003
DGENRE=Blues/Rock
TTITLE0=I Wanna Drive You Home
TTITLE1=It's So Hard
TTITLE2=Pearl Necklace
TTITLE3=Heaven, Hell Or Houston
TTITLE4=Gimme All Your Lovin
TTITLE5=Got Me Under Pressure
TTITLE6=TV Dinners
TTITLE7=Sharp Dressed Man
TTITLE8=Legs
TTITLE9=I Got The Six
TTITLE10=Dirty Dog
TTITLE11=If I Could Only Flag Her Down
TTITLE12=Sleeping Bag
TTITLE13=Stages
TTITLE14=Woke Up With Wood
TTITLE15=Rough Boy
TTITLE16=Can't Stop Rockin'
TTITLE17=Planet Of Women
TTITLE18=Velcro Fly
TTITLE19=Delirious
EXTD=YEAR: 2003
EXTT0=
EXTT1=
EXTT2=
EXTT3=
EXTT4=
EXTT5=
EXTT6=
EXTT7=
EXTT8=
EXTT9=
EXTT10=
EXTT11=
EXTT12=
EXTT13=
EXTT14=
EXTT15=
EXTT16=
EXTT17=
EXTT18=
EXTT19=
PLAYORDER=
